<?xml version="1.0" standalone="no"?>
<!DOCTYPE svg PUBLIC "-//W3C//DTD SVG 20010904//EN"
 "http://www.w3.org/TR/2001/REC-SVG-20010904/DTD/svg10.dtd">
<svg version="1.0" xmlns="http://www.w3.org/2000/svg"
 width="300.000000pt" height="300.000000pt" viewBox="0 0 300.000000 300.000000"
 preserveAspectRatio="xMidYMid meet">
<metadata>
Created by potrace 1.10, written by Peter Selinger 2001-2011
</metadata>
<g transform="translate(0.000000,300.000000) scale(0.100000,-0.100000)"
fill="#000000" stroke="none">
<path d="M1372 2869 c-578 -56 -1070 -480 -1207 -1041 -84 -340 -38 -683 133
-992 262 -476 787 -755 1326 -706 266 25 477 97 661 228 271 192 432 452 511
822 20 93 26 404 11 513 l-8 57 -650 0 -649 0 0 -267 0 -268 370 3 c203 1 370
1 370 -1 0 -20 -40 -127 -67 -182 -42 -83 -157 -202 -245 -254 -153 -89 -372
-128 -551 -98 -295 50 -547 263 -641 541 -6 18 -7 18 -29 -2 -39 -36 -412
-322 -419 -322 -5 0 -8 8 -8 19 0 10 -11 43 -24 72 -36 83 -83 257 -93 345
-21 206 0 403 63 585 19 57 41 121 47 142 6 20 14 37 17 37 3 0 63 -45 135
-100 271 -208 287 -221 279 -239 -3 -9 -15 -45 -25 -81 -38 -138 -4 -482 44
-434 3 3 -1 28 -9 55 -19 63 -32 233 -22 290 4 24 13 65 19 91 6 26 12 53 13
60 12 59 96 214 151 281 111 134 245 223 410 273 77 22 108 26 215 26 192 0
343 -50 473 -156 l54 -44 197 197 198 198 -54 45 c-209 179 -461 281 -753 308
-120 11 -122 11 -243 -1z m253 -34 c140 -10 268 -41 402 -99 130 -55 333 -189
333 -219 0 -21 -331 -348 -343 -340 -7 4 -39 26 -72 48 -86 59 -170 93 -285
116 -113 21 -184 24 -280 9 -279 -44 -517 -224 -641 -484 -17 -36 -33 -66 -34
-66 -2 0 -66 48 -142 106 -76 58 -162 125 -192 147 -29 23 -55 47 -58 54 -3 7
16 47 42 90 208 342 567 579 960 632 86 12 178 18 210 14 11 -1 56 -5 100 -8z
m1145 -1130 c13 -13 15 -52 15 -238 0 -197 -3 -234 -24 -327 -50 -224 -160
-440 -294 -581 -24 -26 -47 -54 -50 -63 -4 -9 -14 -16 -24 -16 -18 0 -373 269
-402 303 -11 14 -2 25 12 15 2 -2 11 5 21 14 9 10 25 23 35 30 67 49 187 252
198 336 4 33 2 42 -15 51 -13 7 -141 12 -360 13 -187 2 -343 6 -346 9 -5 5 -9
273 -6 446 0 15 7 23 23 25 12 2 287 2 612 0 513 -2 591 -4 605 -17z m-2030
-576 c93 -184 224 -316 405 -406 103 -53 189 -74 320 -80 157 -7 290 19 418
80 87 43 104 44 132 13 6 -6 50 -40 99 -76 48 -36 96 -72 105 -80 9 -8 44 -37
79 -63 34 -27 62 -51 62 -54 0 -20 -125 -106 -246 -168 -290 -149 -706 -177
-1032 -70 -113 38 -286 127 -377 195 -87 65 -255 227 -255 246 0 7 -3 14 -8
16 -12 5 -78 101 -106 154 l-26 49 32 28 c17 15 71 58 120 94 48 36 88 70 88
74 0 4 8 10 18 13 9 3 28 16 42 29 39 35 82 67 91 67 4 0 22 -28 39 -61z"/>
</g>
</svg>
