<?xml version="1.0" standalone="no"?>
<!DOCTYPE svg PUBLIC "-//W3C//DTD SVG 20010904//EN"
 "http://www.w3.org/TR/2001/REC-SVG-20010904/DTD/svg10.dtd">
<svg version="1.0" xmlns="http://www.w3.org/2000/svg"
 width="300.000000pt" height="300.000000pt" viewBox="0 0 300.000000 300.000000"
 preserveAspectRatio="xMidYMid meet">
<metadata>
Created by potrace 1.10, written by Peter Selinger 2001-2011
</metadata>
<g transform="translate(0.000000,300.000000) scale(0.100000,-0.100000)"
fill="#000000" stroke="none">
<path d="M1334 2618 c-16 -12 -31 -23 -33 -25 -2 -1 -5 -96 -6 -210 -1 -115
-3 -216 -4 -225 -1 -22 -20 -23 -35 -3 -7 10 -30 16 -58 18 -25 1 -44 5 -41
10 2 4 10 7 16 7 26 1 98 82 103 118 3 19 -57 93 -91 113 -23 12 -48 16 -106
13 -87 -3 -122 -19 -168 -78 -40 -50 -45 -36 -38 105 l5 109 -30 25 c-35 29
-41 30 -77 9 -40 -24 -52 -48 -58 -125 -3 -37 -10 -66 -14 -63 -5 3 -9 -4 -9
-14 0 -17 -12 -22 -87 -32 -49 -7 -90 -11 -93 -9 -3 2 -6 49 -6 103 -1 99 -2
100 -33 128 -35 31 -62 35 -84 13 -8 -8 -17 -12 -20 -9 -9 9 -27 -32 -26 -58
2 -52 -11 -375 -17 -401 -7 -34 3 -96 20 -119 6 -9 28 -19 46 -23 53 -9 83 24
99 111 6 38 15 75 19 81 12 20 181 37 187 19 2 -6 6 -41 9 -78 6 -84 26 -124
64 -133 35 -7 82 9 82 30 0 8 5 15 12 15 6 0 8 3 5 7 -4 3 -2 12 4 19 9 11 19
7 53 -20 42 -34 108 -56 169 -56 40 0 172 38 163 47 -8 9 25 44 35 37 4 -2 5
-12 2 -21 -4 -11 -3 -14 5 -9 7 4 12 2 12 -4 0 -19 27 -40 58 -46 34 -7 80 28
87 67 2 12 5 131 5 265 1 213 -1 246 -16 269 -32 49 -66 56 -110 23z m78 -25
c17 -15 18 -37 18 -272 0 -277 -4 -301 -54 -301 -45 0 -46 9 -46 297 0 248 2
273 18 282 25 15 43 13 64 -6z m-957 -16 c16 -13 17 -26 13 -141 -4 -112 -3
-126 11 -122 26 8 183 35 220 38 l35 3 4 80 c6 123 49 186 97 139 13 -14 15
-26 10 -63 -4 -25 -8 -142 -10 -259 -2 -223 -3 -231 -46 -232 -41 0 -50 21
-52 133 l-2 108 -40 -6 c-22 -3 -83 -13 -136 -22 l-96 -16 -7 -85 c-7 -93 -16
-112 -52 -112 -40 0 -50 28 -43 121 4 46 8 159 8 251 1 137 4 169 17 182 19
20 44 20 69 3z m689 -177 c78 -18 114 -91 70 -141 -19 -23 -190 -109 -215
-109 -10 0 -9 -4 3 -16 27 -27 110 -30 167 -5 61 26 83 20 79 -22 -8 -85 -201
-116 -297 -48 -67 48 -81 174 -29 257 31 49 48 63 95 80 45 16 74 17 127 4z"/>
<path d="M1014 2284 c-31 -32 -45 -61 -26 -52 4 2 40 19 79 37 40 18 70 37 67
42 -3 5 -24 9 -46 9 -34 0 -46 -6 -74 -36z"/>
<path d="M1544 2630 c-49 -20 -52 -38 -53 -316 l-2 -260 25 -27 c34 -36 64
-42 104 -17 37 23 51 51 46 95 -2 17 -1 24 3 16 6 -15 19 -31 72 -87 20 -21
37 -37 39 -36 1 2 18 -1 36 -7 37 -10 104 -4 122 10 6 5 13 7 16 4 3 -3 24 15
46 39 52 56 76 133 69 216 -6 60 -9 67 -62 125 -71 78 -243 57 -290 -36 -16
-30 -23 -33 -48 -23 -12 4 -14 27 -11 130 l5 125 -33 29 c-34 31 -48 35 -84
20z m70 -42 c11 -19 13 -74 11 -280 -2 -273 -5 -288 -50 -288 -44 0 -46 13
-46 296 0 244 2 270 17 281 27 19 52 16 68 -9z m361 -212 c48 -32 76 -139 55
-216 -24 -92 -83 -140 -171 -140 -63 0 -108 25 -141 78 -32 52 -32 150 0 207
53 92 173 126 257 71z"/>
<path d="M1838 2296 c-10 -7 -25 -30 -34 -51 -40 -97 41 -177 110 -109 21 22
26 36 26 78 0 30 -6 61 -16 74 -17 25 -59 29 -86 8z m67 -60 c4 -17 2 -43 -4
-58 -8 -21 -16 -26 -37 -23 -32 3 -47 24 -31 44 9 12 9 13 -1 7 -10 -6 -10 -2
0 18 6 14 15 26 20 26 4 0 8 6 8 14 0 29 39 5 45 -28z"/>
<path d="M2173 2112 c-55 -26 -55 -97 1 -127 21 -12 42 -16 59 -11 35 8 80 54
73 73 -3 8 -6 18 -6 21 0 4 -10 18 -23 32 -26 29 -60 33 -104 12z m87 -32 c11
-11 20 -24 20 -30 0 -18 -39 -50 -61 -50 -54 0 -77 44 -42 82 21 24 58 23 83
-2z"/>
<path d="M2471 2102 c-39 -44 -23 -103 32 -121 84 -28 146 54 93 122 -10 13
-29 20 -59 21 -36 2 -49 -3 -66 -22z m103 -18 c50 -50 -33 -115 -86 -67 -24
22 -23 49 4 67 29 20 62 20 82 0z"/>
<path d="M1395 1914 c-108 -22 -138 -30 -189 -51 -207 -86 -347 -267 -387
-502 -12 -64 -14 -69 -95 -151 -142 -146 -198 -228 -248 -368 -44 -123 -32
-271 30 -379 14 -24 20 -43 15 -43 -5 0 -13 5 -16 10 -12 19 -56 10 -79 -15
-21 -23 -27 -24 -49 -14 -38 17 -81 -4 -105 -51 -12 -25 -23 -36 -31 -31 -6 4
-63 9 -126 10 -99 2 -115 0 -115 -13 0 -14 19 -16 129 -16 l128 0 7 -38 c9
-62 64 -100 110 -77 24 13 28 12 55 -16 35 -34 49 -36 84 -9 l26 21 21 -21
c28 -28 57 -25 90 10 17 18 31 26 35 20 3 -5 21 -10 40 -10 25 0 40 8 59 31
14 17 26 35 26 40 0 5 273 9 685 9 611 0 685 -2 685 -15 0 -44 87 -84 117 -54
7 7 19 1 41 -20 36 -36 50 -38 86 -10 l26 20 26 -20 c36 -28 51 -26 84 9 17
18 31 26 35 20 3 -5 21 -10 39 -10 40 0 75 34 85 82 l7 33 137 3 c116 2 137 5
137 18 0 14 -18 15 -135 13 l-136 -3 -19 32 c-27 44 -62 59 -97 43 -24 -11
-29 -9 -56 18 -23 22 -28 33 -20 43 6 7 21 46 33 87 19 62 22 88 17 165 -12
178 -62 283 -207 431 -91 93 -98 103 -105 150 -10 80 -30 138 -81 237 -37 71
-66 111 -123 169 -112 111 -238 173 -418 204 -79 14 -210 18 -258 9z m345 -53
c132 -38 251 -103 320 -173 69 -72 160 -241 186 -346 25 -104 18 -105 -79 -9
-248 245 -492 313 -857 237 -100 -21 -266 -108 -350 -185 -19 -17 -54 -43 -77
-58 l-43 -27 0 22 c0 51 33 158 73 238 77 157 215 264 399 311 102 26 320 21
428 -10z m-86 -282 c138 -24 251 -59 294 -92 18 -14 -3 -27 -43 -27 -27 0
-114 27 -125 39 -7 8 -36 13 -102 16 -31 2 -61 6 -66 8 -21 14 -203 7 -236 -8
-15 -7 -17 -5 -11 6 7 11 6 12 -6 3 -8 -7 -30 -14 -49 -17 -19 -2 -50 -11 -67
-18 -29 -12 -35 -11 -49 2 -14 15 -11 18 33 37 42 18 153 44 171 40 4 -1 14 2
22 5 16 7 67 12 134 15 22 1 67 -3 100 -9z m-108 -73 c14 -10 23 -11 32 -4 9
8 16 8 23 1 6 -6 28 -9 49 -6 40 6 70 -2 259 -69 147 -53 258 -122 400 -250
123 -112 200 -213 227 -303 22 -73 30 -240 14 -306 -16 -69 -45 -125 -78 -154
-26 -22 -27 -22 -40 -4 -20 29 -77 26 -98 -6 -13 -20 -20 -23 -34 -15 -52 28
-112 -8 -124 -74 -6 -30 -10 -33 -43 -34 l-36 -2 24 28 c13 15 26 29 29 32 20
21 41 85 44 138 2 34 6 65 10 69 3 3 16 -3 29 -15 25 -24 46 -30 30 -9 -10 11
-37 83 -38 99 0 3 -3 10 -7 14 -5 4 -8 -8 -8 -28 0 -39 -28 -72 -56 -66 -13 2
-21 16 -26 47 -4 24 -14 51 -21 60 -10 10 -16 53 -20 122 -3 62 -12 120 -21
140 -15 32 -15 27 -10 -91 4 -106 2 -136 -15 -195 -11 -38 -17 -72 -14 -75 5
-5 40 33 59 66 24 40 23 4 -1 -81 -27 -92 -27 -118 -1 -67 17 33 41 43 75 30
21 -7 22 -12 16 -45 -15 -83 -98 -183 -151 -183 -14 0 -23 4 -19 10 3 5 12 10
18 10 19 0 87 60 87 76 0 8 -4 14 -10 14 -5 0 -10 -7 -10 -14 0 -15 -59 -66
-75 -66 -5 0 8 17 28 37 21 20 37 42 37 50 0 7 9 13 19 13 27 0 51 27 51 56 0
55 -52 12 -90 -74 -11 -25 -23 -43 -26 -39 -3 3 -1 14 5 25 6 12 11 27 11 34
0 7 -17 -18 -38 -56 -37 -68 -39 -70 -78 -71 l-40 -1 29 58 c17 32 27 61 24
65 -4 3 -8 4 -9 2 -2 -2 -17 -31 -34 -64 l-31 -60 -373 0 -374 0 -22 33 c-51
75 -91 196 -119 355 -9 54 -26 35 -24 -27 2 -60 -2 -71 -31 -79 -16 -4 -20 0
-20 19 0 39 -14 28 -33 -26 -10 -27 -29 -63 -43 -80 -32 -37 -9 -42 26 -5 29
31 42 23 39 -24 -2 -24 1 -35 9 -34 7 2 12 -3 12 -11 0 -8 15 -37 34 -65 l35
-51 -25 0 c-14 0 -37 8 -51 18 -15 9 -24 11 -20 5 5 -7 5 -13 0 -13 -4 0 -25
-4 -45 -9 l-38 -9 -6 49 c-4 27 -12 54 -20 60 -20 16 -71 21 -94 9 -18 -10
-24 -7 -42 15 -18 23 -27 26 -58 22 -35 -4 -39 -2 -58 32 -39 72 -56 143 -56
231 1 76 6 95 43 184 48 116 101 193 212 310 140 148 333 246 582 296 55 11
119 20 142 20 24 0 47 5 50 10 8 14 18 13 41 -4z m453 -58 c6 -7 15 -13 19
-13 16 0 82 -47 82 -58 0 -7 -4 -6 -10 3 -5 8 -10 12 -10 7 0 -4 -10 -1 -23 8
-13 8 -27 12 -30 8 -4 -3 -7 -1 -7 6 0 7 -4 9 -10 6 -5 -3 -10 -2 -10 3 0 5
-14 12 -31 16 -17 3 -28 10 -24 16 9 14 38 13 54 -2z m-1027 -937 c13 -15 44
-66 67 -112 l44 -84 -32 29 c-17 17 -31 26 -31 21 0 -4 14 -21 31 -37 17 -16
28 -32 25 -36 -9 -8 -76 59 -76 76 0 7 -4 10 -10 7 -17 -11 -11 -23 32 -65 43
-41 37 -55 -11 -21 -42 30 -75 106 -79 184 -5 75 3 82 40 38z m1168 -59 c0
-14 -36 -43 -43 -35 -4 3 0 15 10 25 17 19 33 24 33 10z m-1620 -72 c5 -10 10
-48 10 -85 0 -109 -41 -156 -89 -104 -17 18 -20 36 -20 101 0 71 3 83 25 104
19 20 28 23 44 14 11 -6 24 -19 30 -30z m1910 0 c15 -29 14 -153 -2 -179 -21
-35 -49 -37 -75 -7 -20 24 -22 35 -20 108 3 70 7 84 26 99 26 21 53 13 71 -21z
m111 21 c22 -17 24 -27 24 -104 0 -69 -3 -89 -19 -106 -49 -54 -86 -10 -86
103 0 68 3 83 22 103 26 28 29 28 59 4z m-1905 -12 c15 -17 19 -36 19 -99 0
-63 -4 -82 -19 -99 -23 -25 -43 -27 -68 -4 -25 22 -27 183 -2 207 21 22 47 20
70 -5z m-240 -46 c20 -46 12 -102 -17 -125 -27 -23 -33 -23 -65 5 -53 46 -28
157 37 157 25 0 32 -6 45 -37z m368 18 c56 -62 4 -187 -64 -151 -23 12 -22 8
-25 80 -3 61 13 90 50 90 12 0 30 -8 39 -19z m1536 4 c7 -9 15 -38 18 -65 4
-42 1 -52 -21 -74 -32 -32 -42 -32 -72 -1 -30 29 -34 97 -9 133 18 26 65 30
84 7z m379 -11 c25 -31 27 -74 6 -113 -22 -44 -63 -50 -90 -14 -14 19 -11 119
5 138 19 23 56 18 79 -11z"/>
<path d="M1382 1859 c-84 -13 -183 -51 -242 -94 -79 -58 -166 -158 -205 -237
-31 -63 -35 -80 -29 -116 5 -34 9 -40 20 -31 8 7 11 21 8 35 -9 35 30 149 47
139 4 -3 11 5 15 17 4 13 15 32 25 43 38 41 59 68 59 76 0 5 7 5 17 2 11 -4
14 -3 9 5 -9 15 126 102 159 102 13 0 28 7 33 15 11 21 34 25 198 31 93 4 143
3 148 -4 3 -5 14 -8 24 -5 11 2 45 -3 76 -12 32 -9 60 -15 62 -12 8 7 -109 37
-187 47 -88 11 -151 11 -237 -1z"/>
<path d="M1455 1797 c-52 -24 -105 -88 -105 -124 0 -11 7 -4 18 17 40 82 94
115 185 111 72 -2 119 -31 162 -98 20 -32 34 -48 30 -35 -12 43 -57 99 -94
120 -21 12 -62 24 -92 27 -44 5 -63 2 -104 -18z"/>
<path d="M1939 1746 c8 -9 28 -24 45 -33 42 -22 20 5 -26 31 -29 17 -31 18
-19 2z"/>
<path d="M2050 1666 c0 -4 7 -33 16 -63 9 -33 14 -74 11 -99 -2 -24 -1 -44 4
-44 5 0 9 30 9 68 0 45 3 62 10 52 5 -8 12 -11 15 -8 4 4 -3 15 -14 25 -12 9
-21 22 -21 28 -1 12 -30 53 -30 41z"/>
<path d="M1370 1424 c-188 -28 -372 -103 -464 -189 -11 -11 -25 -20 -31 -21
-33 -3 -94 -40 -113 -69 -13 -18 -48 -59 -78 -90 -30 -32 -54 -63 -54 -70 0
-6 -20 -43 -45 -81 -27 -40 -44 -79 -44 -94 1 -14 -4 -47 -10 -74 -12 -51 -13
-157 -1 -176 4 -6 10 28 14 77 13 180 19 207 57 265 20 29 39 62 43 73 3 11
28 42 56 69 27 27 50 52 50 57 0 15 52 68 74 75 11 4 26 13 34 20 7 8 18 12
23 8 5 -3 27 10 47 28 41 37 164 99 257 131 127 42 222 56 370 53 77 -2 151
-6 165 -10 14 -3 48 -10 75 -16 123 -27 140 -32 143 -41 2 -5 9 -9 15 -9 6 0
21 -10 34 -22 13 -12 26 -19 29 -15 9 8 -32 42 -68 58 -16 6 -28 17 -28 24 0
6 -11 17 -25 23 -36 17 -55 14 -25 -3 23 -13 24 -14 4 -15 -12 0 -57 9 -100
20 -107 26 -284 33 -404 14z"/>
<path d="M1335 1366 c-33 -8 -78 -22 -100 -31 -60 -26 -151 -93 -182 -134 -97
-131 -137 -171 -197 -201 -33 -17 -89 -36 -123 -42 -35 -6 -63 -15 -63 -18 0
-10 160 -9 184 0 12 5 16 9 9 9 -17 1 -4 31 13 31 17 0 168 149 160 157 -6 6
44 57 104 105 48 38 109 72 116 65 2 -2 -6 -19 -19 -38 -12 -19 -33 -55 -47
-81 -24 -46 -44 -60 -52 -37 -2 7 -13 9 -24 5 -22 -7 -58 -73 -73 -134 -6 -20
-14 -53 -19 -72 -5 -20 -10 -74 -11 -120 -1 -46 -6 -92 -11 -101 -7 -12 0 -39
22 -93 17 -41 33 -74 36 -72 2 2 -2 48 -8 103 -8 68 -8 127 -2 193 11 105 61
292 77 287 6 -2 8 -15 5 -28 -15 -71 7 -289 29 -289 4 0 7 42 7 93 0 110 31
211 97 321 l41 69 13 -29 c7 -16 12 -38 13 -49 2 -68 172 -345 211 -345 4 0
-12 43 -37 94 -54 113 -95 306 -66 306 21 0 245 -257 306 -351 16 -26 16 -26
-25 -53 -67 -45 -38 -40 52 9 94 50 109 54 109 25 0 -11 5 -20 10 -20 6 0 10
8 10 18 -1 32 -37 177 -51 203 -19 36 -76 99 -89 99 -5 0 -10 5 -10 10 0 6 -7
10 -15 10 -9 0 4 -27 39 -79 47 -70 106 -197 95 -204 -15 -11 -90 -34 -93 -29
-2 4 -7 36 -11 72 -14 128 -48 238 -65 211 -4 -8 -5 -24 0 -36 11 -29 20 -112
13 -119 -3 -3 -26 20 -52 51 -88 106 -198 212 -217 209 -23 -3 -44 -44 -47
-90 -2 -19 -5 -38 -8 -41 -7 -6 -24 34 -34 80 -4 17 -13 37 -21 47 -26 28 38
41 174 35 246 -11 422 -71 517 -175 16 -19 41 -46 55 -60 48 -51 152 -231 147
-254 -2 -12 60 -50 103 -63 19 -6 11 6 -35 51 -43 42 -73 84 -104 146 -74 148
-190 265 -312 314 -154 61 -415 90 -544 60z"/>
<path d="M2050 1300 c0 -6 7 -13 15 -16 8 -4 12 -10 9 -16 -3 -5 0 -9 7 -7 29
3 37 -2 32 -20 -3 -11 2 -21 11 -24 19 -8 21 4 4 22 -8 8 -1 7 20 -3 17 -9 32
-21 32 -26 0 -6 8 -10 18 -10 12 0 8 8 -18 30 -19 16 -39 30 -43 30 -5 0 -23
11 -41 25 -36 27 -46 31 -46 15z"/>
<path d="M894 1266 c-16 -14 -24 -25 -19 -25 15 -1 61 37 54 44 -4 3 -20 -5
-35 -19z"/>
<path d="M2251 1183 c13 -16 25 -30 27 -32 1 -2 4 -2 7 1 7 7 -34 58 -47 58
-7 0 -1 -12 13 -27z"/>
<path d="M934 1138 c-31 -24 -32 -25 -79 -77 -49 -54 2 -20 65 44 57 58 62 70
14 33z"/>
<path d="M1906 1063 c65 -118 90 -193 100 -302 11 -126 27 -85 23 58 -3 81 -8
124 -16 129 -7 4 -28 38 -47 75 -42 82 -82 137 -100 137 -9 0 6 -36 40 -97z"/>
<path d="M796 1131 c-11 -12 -16 -24 -12 -28 9 -9 39 22 34 37 -2 7 -10 4 -22
-9z"/>
<path d="M1281 1132 c-1 -20 38 -92 66 -121 22 -23 24 -23 14 -4 -6 12 -16 25
-22 29 -6 4 -22 30 -35 58 -12 28 -23 45 -23 38z"/>
<path d="M2313 1102 c33 -32 81 -93 133 -166 7 -11 16 -17 20 -13 14 14 -155
217 -181 217 -5 0 7 -17 28 -38z"/>
<path d="M2205 1041 c68 -67 93 -97 99 -117 7 -23 46 -63 46 -47 0 6 -9 22
-20 36 -11 14 -20 29 -20 34 0 12 -113 123 -125 123 -5 0 4 -13 20 -29z"/>
<path d="M2306 1045 c12 -19 18 -22 29 -12 14 13 10 31 -5 22 -5 -3 -11 -1
-15 5 -3 5 -11 10 -16 10 -5 0 -2 -11 7 -25z"/>
<path d="M1390 966 c26 -34 60 -65 60 -56 0 20 -23 59 -32 54 -5 -3 -17 0 -26
8 -16 12 -16 11 -2 -6z"/>
<path d="M1190 951 c0 -5 22 -17 49 -26 26 -8 69 -29 96 -46 59 -37 82 -33 26
5 -45 32 -171 81 -171 67z"/>
<path d="M831 870 c-73 -93 -113 -192 -47 -118 18 21 50 51 71 68 24 19 32 30
21 30 -18 0 -21 21 -5 37 6 6 9 17 7 24 -3 8 -22 -9 -47 -41z"/>
<path d="M715 854 c-36 -78 -52 -188 -38 -261 12 -62 59 -180 69 -170 3 3 -2
17 -11 31 -9 14 -13 31 -9 37 4 7 0 17 -9 24 -27 19 -39 155 -21 239 8 38 18
74 23 80 10 14 32 76 26 76 -3 0 -16 -25 -30 -56z"/>
<path d="M2373 813 c32 -72 36 -218 8 -297 -27 -76 -21 -84 9 -11 31 76 31
216 0 299 -12 31 -25 56 -30 56 -5 0 1 -21 13 -47z"/>
<path d="M2200 825 c0 -11 9 -49 20 -84 10 -35 17 -67 15 -71 -2 -3 12 -26 32
-50 39 -48 39 -48 -6 82 -36 104 -60 153 -61 123z"/>
<path d="M889 793 c-17 -55 -75 -142 -123 -187 l-41 -38 35 7 c69 15 166 73
99 60 -17 -3 -19 0 -13 18 4 12 18 40 32 61 22 36 43 116 29 116 -3 0 -11 -17
-18 -37z"/>
<path d="M1161 775 c-21 -20 -42 -47 -45 -61 -10 -40 1 -41 17 -2 22 52 61 78
118 78 53 0 102 -32 121 -79 6 -15 12 -21 15 -14 7 20 -36 82 -67 98 -16 8
-49 15 -74 15 -38 0 -52 -6 -85 -35z"/>
<path d="M1767 785 c-31 -22 -67 -69 -67 -89 0 -3 22 17 48 44 45 46 52 50 96
50 56 0 97 -25 116 -70 16 -39 32 -39 18 0 -5 17 -26 44 -46 60 -48 40 -111
41 -165 5z"/>
<path d="M1476 711 c-4 -5 -4 -16 -1 -23 3 -8 1 -35 -4 -61 -10 -43 -7 -77 8
-77 3 0 8 38 9 85 3 81 0 97 -12 76z"/>
<path d="M1236 698 c-20 -11 -21 -61 -2 -78 21 -16 60 -9 64 13 10 51 -24 86
-62 65z"/>
<path d="M1812 688 c-18 -18 -15 -53 6 -71 25 -23 39 -21 58 8 15 23 15 27 0
50 -18 27 -45 32 -64 13z"/>
<path d="M1140 561 c0 -15 47 -40 88 -47 43 -7 112 11 112 28 0 6 -7 7 -17 2
-41 -18 -100 -16 -142 5 -22 12 -41 17 -41 12z"/>
<path d="M1739 546 c7 -8 26 -18 42 -21 42 -9 39 -36 -3 -29 -32 4 -32 4 -8
-7 37 -17 166 -17 182 0 11 11 8 12 -16 7 -19 -5 -32 -3 -37 6 -7 10 -9 10 -9
1 0 -15 -56 -18 -65 -3 -3 6 3 10 14 10 29 0 101 30 101 42 0 5 -6 7 -12 4
-68 -27 -91 -30 -138 -13 -58 21 -66 21 -51 3z"/>
<path d="M600 523 c0 -19 22 -63 32 -63 12 0 10 6 -12 42 -11 18 -20 28 -20
21z"/>
<path d="M1073 522 c-8 -5 -6 -14 7 -32 13 -16 19 -20 19 -10 -1 28 -14 49
-26 42z"/>
<path d="M1334 471 c-39 -5 -97 -17 -130 -27 -32 -9 -67 -16 -77 -15 -15 2
-18 -2 -12 -21 14 -46 33 -86 44 -92 14 -9 14 -5 -4 37 -8 20 -15 40 -15 45 0
14 102 42 197 54 107 13 399 4 496 -15 37 -8 64 -11 60 -6 -33 32 -399 58
-559 40z"/>
<path d="M1242 323 c17 -38 17 -39 31 -20 37 49 567 39 567 -11 0 -13 2 -14
13 -3 20 20 -14 37 -99 50 -91 13 -334 14 -424 1 -41 -6 -68 -6 -74 0 -19 19
-25 10 -14 -17z"/>
<path d="M950 456 c0 -30 5 -38 26 -47 36 -13 38 -8 17 37 -25 51 -43 56 -43
10z"/>
</g>
</svg>
