<?xml version="1.0" standalone="no"?>
<!DOCTYPE svg PUBLIC "-//W3C//DTD SVG 20010904//EN"
 "http://www.w3.org/TR/2001/REC-SVG-20010904/DTD/svg10.dtd">
<svg version="1.0" xmlns="http://www.w3.org/2000/svg"
 width="300.000000pt" height="169.000000pt" viewBox="0 0 300.000000 169.000000"
 preserveAspectRatio="xMidYMid meet">
<metadata>
Created by potrace 1.10, written by Peter Selinger 2001-2011
</metadata>
<g transform="translate(0.000000,169.000000) scale(0.100000,-0.100000)"
fill="#000000" stroke="none">
<path d="M419 1673 c6 -12 31 -38 57 -59 25 -22 51 -44 57 -49 7 -6 30 -24 51
-40 22 -17 51 -40 64 -52 13 -12 49 -41 80 -65 62 -46 173 -137 209 -170 21
-18 22 -22 8 -48 -8 -16 -15 -36 -15 -45 0 -23 -29 -18 -95 15 -33 16 -68 30
-77 30 -9 0 -19 4 -22 9 -3 5 -17 12 -31 15 -14 4 -50 18 -80 31 -29 14 -59
25 -64 25 -6 0 -11 5 -11 10 0 6 -6 10 -13 10 -16 0 -113 38 -205 81 -35 16
-68 29 -73 29 -5 0 -17 4 -27 9 -38 20 -148 69 -169 75 -13 3 -33 9 -44 12
-14 4 -20 2 -17 -6 2 -6 215 -102 474 -214 l471 -202 24 76 c12 41 23 78 23
81 1 8 -551 449 -571 456 -13 5 -13 2 -4 -14z"/>
<path d="M891 1670 c83 -120 215 -299 221 -299 3 -1 17 23 31 52 13 29 38 69
55 88 l31 36 -28 68 c-15 38 -33 71 -39 73 -16 5 -15 -21 3 -65 21 -51 19 -80
-10 -111 -14 -15 -28 -37 -31 -49 -8 -31 -17 -29 -47 10 -52 65 -147 200 -147
209 0 4 -12 8 -26 8 -24 0 -25 -2 -13 -20z"/>
<path d="M1413 1675 c0 -16 17 -19 55 -9 35 10 26 24 -16 24 -28 0 -39 -4 -39
-15z"/>
<path d="M1520 1681 c0 -5 26 -11 58 -14 31 -3 68 -9 82 -13 23 -7 24 -6 11 9
-8 11 -21 15 -32 12 -11 -4 -19 -2 -19 4 0 6 -21 11 -50 11 -27 0 -50 -4 -50
-9z"/>
<path d="M1720 1664 c-14 -36 -13 -42 11 -49 11 -4 48 -33 83 -66 l63 -59 61
100 c57 95 59 100 36 100 -17 0 -25 -7 -30 -25 -3 -14 -10 -25 -15 -25 -5 0
-9 -5 -9 -11 0 -14 -39 -69 -49 -69 -5 0 -31 19 -60 42 -35 28 -51 49 -51 65
0 31 -28 30 -40 -3z"/>
<path d="M2175 1498 c-111 -106 -203 -198 -204 -204 -1 -6 5 -17 13 -23 7 -6
23 -39 35 -72 13 -33 26 -59 30 -57 3 2 105 57 226 122 121 66 330 179 465
252 236 128 274 154 256 171 -5 4 -11 2 -13 -4 -3 -7 -13 -13 -23 -13 -10 0
-20 -4 -22 -9 -3 -9 -16 -17 -164 -91 -49 -25 -91 -48 -94 -51 -3 -3 -27 -17
-55 -31 -56 -28 -169 -88 -290 -155 -44 -25 -84 -45 -90 -46 -5 -1 -12 -5 -15
-8 -13 -16 -158 -86 -166 -81 -10 8 -44 78 -44 92 0 9 190 197 295 293 53 48
94 107 75 107 -6 0 -103 -87 -215 -192z"/>
<path d="M1308 1630 c-27 -17 -48 -34 -48 -40 0 -5 22 4 49 20 26 17 53 30 59
30 6 0 14 5 17 10 12 20 -31 9 -77 -20z"/>
<path d="M1465 1613 c-11 -3 -24 -9 -29 -14 -15 -14 14 -10 49 6 29 13 19 17
-20 8z"/>
<path d="M1699 1524 c-30 -36 -86 -54 -172 -54 -48 0 -88 -5 -94 -11 -7 -7
-36 -10 -77 -7 -50 3 -71 9 -89 26 -13 12 -27 19 -30 15 -10 -10 -8 -25 2 -19
5 3 21 -10 35 -29 l26 -34 -22 -12 c-13 -7 -41 -27 -63 -44 -22 -18 -50 -37
-61 -43 -30 -16 -84 1 -111 35 -13 16 -23 22 -23 15 0 -25 41 -92 66 -109 25
-16 28 -16 58 2 17 10 47 26 66 37 19 10 46 26 60 36 l24 17 -23 -40 c-13 -22
-33 -54 -43 -72 -38 -64 -33 -220 9 -254 15 -12 16 -12 9 6 -15 40 -18 124 -6
176 7 30 31 90 54 134 22 44 40 86 40 92 -1 7 2 10 7 7 5 -3 9 -1 9 4 0 5 -10
12 -22 15 -12 4 -19 9 -16 12 3 4 15 2 26 -4 15 -8 23 -7 32 4 27 32 19 5 -16
-56 -32 -56 -38 -74 -42 -147 -2 -46 -1 -87 4 -92 5 -5 10 16 11 49 1 31 9 79
19 106 18 54 69 135 84 135 29 0 114 -188 126 -280 11 -83 22 -35 23 96 1 110
1 111 -22 107 -18 -4 -28 4 -50 38 -15 23 -25 44 -22 47 3 3 25 7 50 8 l45 3
0 -39 c0 -20 6 -43 14 -49 22 -18 65 -135 72 -195 6 -48 4 -55 -14 -60 -11 -4
-25 -13 -32 -21 -10 -12 -7 -12 19 -2 24 9 38 9 62 0 26 -10 29 -10 19 3 -7 8
-19 14 -27 14 -10 0 -13 6 -8 18 15 38 35 108 35 125 0 13 -5 17 -19 12 -14
-4 -22 3 -36 32 -10 21 -27 51 -38 67 -23 32 -13 46 33 46 32 0 58 -41 61 -96
1 -21 6 -44 10 -50 12 -16 30 -152 28 -206 -2 -26 0 -50 2 -53 3 -3 6 1 7 8 0
6 7 36 15 65 9 28 11 50 6 46 -5 -3 -9 21 -9 55 0 38 -9 84 -24 126 -13 36
-20 65 -16 65 4 0 19 -11 34 -25 24 -22 26 -31 28 -112 0 -48 3 -73 5 -55 5
41 22 38 44 -9 19 -39 32 -109 20 -109 -5 0 -18 21 -29 48 -20 46 -20 47 -21
15 -1 -18 -5 -33 -11 -33 -5 0 -10 -17 -10 -39 0 -21 -4 -62 -10 -90 -7 -38
-6 -57 3 -72 10 -18 8 -23 -15 -40 -28 -20 -37 -39 -19 -39 5 0 23 12 40 26
21 17 31 34 30 52 0 15 -3 21 -6 14 -7 -17 -23 -5 -23 19 0 33 29 34 62 3 24
-23 29 -25 23 -9 -4 11 -10 36 -12 55 -4 31 -3 33 10 18 8 -10 16 -18 18 -18
2 0 2 33 -2 73 -3 39 -4 74 -3 76 2 2 20 -11 40 -28 52 -42 55 -31 8 21 -22
24 -46 58 -53 76 -8 18 -16 31 -18 28 -3 -2 0 -15 7 -28 11 -22 11 -22 -5 -3
-9 11 -14 28 -12 37 3 10 1 16 -3 15 -11 -3 -50 43 -50 60 0 22 12 15 63 -34
l49 -48 -30 50 c-47 76 -105 128 -141 127 -20 0 -31 4 -31 13 0 13 16 18 90
28 25 3 25 3 -5 16 -16 7 -55 15 -86 18 l-55 5 28 28 c15 16 28 36 28 44 0 20
-4 20 -21 0z m-14 -94 c3 -5 0 -10 -7 -10 -7 0 -26 -7 -42 -15 -28 -15 -46
-13 -46 6 0 22 83 38 95 19z m-395 -67 c0 -12 -62 -45 -69 -37 -3 4 -1 9 5 11
6 2 20 10 30 18 21 16 34 19 34 8z m549 -380 c1 -18 -3 -33 -9 -33 -5 0 -10
24 -9 53 0 38 3 47 9 32 5 -11 9 -35 9 -52z"/>
<path d="M1840 1456 c0 -9 18 -34 40 -55 22 -21 40 -36 40 -34 0 13 -32 62
-54 82 -22 21 -26 22 -26 7z"/>
<path d="M1137 1229 c-10 -6 -25 -8 -33 -5 -15 6 -56 -49 -69 -94 -7 -21 -4
-20 27 13 20 20 45 37 57 37 11 0 21 -2 21 -4 0 -15 -57 -100 -82 -121 -38
-32 -31 -41 16 -21 l36 15 0 -63 c0 -41 5 -69 15 -82 15 -18 16 -18 11 11 -3
17 1 44 9 60 l13 30 1 -32 c1 -25 7 -36 30 -48 27 -14 30 -13 33 3 2 9 -4 36
-15 60 -10 23 -15 48 -11 55 4 6 -1 5 -12 -4 -22 -18 -50 -15 -58 8 -4 8 7 37
24 64 16 27 30 52 30 55 0 3 -10 14 -21 23 -20 16 -20 18 -4 34 18 19 9 22
-18 6z"/>
<path d="M2785 1138 c-115 -27 -325 -76 -465 -107 l-254 -58 -12 -45 c-6 -25
-18 -59 -26 -75 l-15 -30 81 -6 c177 -13 896 -40 903 -34 3 4 4 9 2 11 -2 2
-152 11 -334 20 -334 17 -421 22 -532 32 l-61 5 5 32 c7 45 37 73 86 82 23 4
47 9 52 10 38 10 193 46 255 60 41 9 111 25 155 37 44 11 121 29 170 40 50 10
99 21 110 24 40 10 70 16 83 17 6 0 12 9 12 19 0 10 -1 17 -2 17 -2 -1 -97
-24 -213 -51z"/>
<path d="M1478 1130 c14 -17 16 -56 2 -65 -5 -3 -9 -18 -9 -33 1 -21 2 -22 6
-7 3 11 9 24 14 30 15 15 10 62 -8 76 -15 11 -16 11 -5 -1z"/>
<path d="M1296 1059 c-14 -11 -26 -25 -26 -30 0 -6 12 -1 26 10 28 22 94 29
94 10 0 -5 5 -7 12 -3 16 10 -20 34 -53 34 -14 0 -38 -9 -53 -21z"/>
<path d="M993 1005 c0 -38 2 -53 4 -32 2 20 2 52 0 70 -2 17 -4 1 -4 -38z"/>
<path d="M0 1031 c0 -10 27 -18 86 -26 77 -10 190 -26 254 -35 36 -5 119 -17
185 -25 66 -9 131 -18 145 -20 14 -3 48 -7 75 -11 47 -5 130 -20 167 -30 14
-4 48 -55 48 -71 0 -8 -55 -23 -107 -29 -31 -3 -66 -8 -77 -10 -12 -3 -60 -9
-107 -14 -47 -5 -131 -17 -185 -25 -125 -20 -272 -41 -391 -56 -68 -9 -93 -16
-93 -26 0 -11 8 -13 28 -9 15 3 236 33 492 66 256 34 475 63 488 66 l23 5 -25
32 c-14 18 -32 48 -40 67 l-14 35 -464 62 c-519 70 -488 66 -488 54z"/>
<path d="M1635 999 c-22 -4 -107 -8 -188 -8 l-149 -1 -29 -29 c-19 -20 -29
-39 -28 -58 1 -26 1 -26 9 7 13 52 31 60 141 60 107 0 278 15 324 29 l30 9
-35 0 c-19 0 -53 -4 -75 -9z"/>
<path d="M1661 918 c-1 -22 -8 -30 -33 -38 l-33 -10 32 5 c23 3 35 0 43 -13
11 -16 11 -16 6 0 -6 20 32 37 44 19 4 -7 7 5 7 26 1 21 -1 31 -4 23 -6 -16
-32 -40 -44 -40 -4 0 -10 12 -12 28 l-4 27 -2 -27z"/>
<path d="M1010 922 c1 -18 29 -56 44 -58 14 -2 14 1 1 26 -13 25 -45 49 -45
32z"/>
<path d="M1307 900 c3 -19 6 -46 5 -60 -1 -25 -1 -25 8 -2 13 31 38 28 43 -5
l4 -28 2 27 c1 25 5 27 49 31 l47 3 -47 2 c-40 2 -47 5 -51 25 l-4 22 -2 -22
c-2 -36 -36 -29 -49 10 l-11 32 6 -35z"/>
<path d="M1180 877 c0 -29 41 -77 66 -77 12 0 2 31 -12 37 -10 4 -14 13 -10
28 5 19 2 23 -19 21 -14 0 -25 -5 -25 -9z"/>
<path d="M1963 844 c-24 -55 -49 -82 -82 -89 -28 -5 -53 4 -45 17 4 6 -3 5
-15 -1 -25 -14 -28 -23 -4 -14 11 4 14 3 9 -5 -5 -8 -1 -10 10 -5 10 4 15 2
11 -3 -10 -17 37 -10 66 10 27 19 81 110 74 129 -2 6 -13 -12 -24 -39z"/>
<path d="M1255 845 c8 -39 50 -82 121 -125 49 -29 65 -34 123 -34 102 -1 205
56 247 136 23 44 16 46 -10 3 -43 -71 -118 -114 -215 -122 -54 -5 -76 -2 -113
15 -55 24 -126 86 -145 127 l-14 30 6 -30z"/>
<path d="M1712 747 c-23 -24 -29 -47 -13 -47 5 0 11 9 14 21 3 12 10 18 16 14
7 -3 11 2 11 14 0 26 -2 26 -28 -2z"/>
<path d="M1214 693 c19 -23 43 -32 30 -12 -4 8 1 9 17 4 28 -9 24 -3 -10 15
-15 8 -21 8 -17 1 10 -15 -7 -14 -24 2 -8 6 -6 2 4 -10z"/>
<path d="M1868 662 l-47 -36 50 -34 c35 -23 56 -31 71 -27 16 6 31 -4 72 -47
35 -38 158 -125 404 -288 194 -128 355 -230 358 -227 7 7 -52 67 -66 67 -5 0
-10 5 -10 10 0 6 -5 10 -11 10 -6 0 -28 14 -49 30 -21 17 -42 30 -48 30 -6 0
-12 3 -14 8 -3 8 -336 232 -344 232 -12 0 -143 98 -197 147 -32 29 -67 53 -78
53 -11 0 -29 5 -40 10 -24 13 -25 50 -1 51 48 4 41 6 302 -78 209 -66 235 -75
255 -83 37 -15 124 -40 139 -40 9 0 16 -4 16 -8 0 -4 8 -8 18 -9 9 -1 76 -21
147 -46 151 -51 209 -64 203 -46 -3 9 -1061 361 -1078 358 -3 0 -26 -17 -52
-37z"/>
<path d="M1109 680 c-8 -5 -258 -113 -555 -240 -296 -128 -543 -236 -548 -241
-17 -16 -1 -18 34 -6 19 7 40 15 45 18 6 3 36 14 68 24 31 11 57 23 57 27 0 4
7 8 15 8 8 0 23 4 33 9 16 8 53 24 112 49 14 6 51 22 82 36 31 14 59 26 62 26
6 0 30 10 141 60 90 40 192 83 252 105 59 23 63 23 53 5 -6 -10 -14 -22 -20
-25 -5 -3 -18 -25 -29 -48 -11 -23 -38 -62 -60 -85 -23 -24 -41 -48 -41 -52 0
-5 -51 -50 -112 -100 -62 -51 -125 -101 -139 -113 -14 -12 -47 -39 -73 -61
-46 -38 -75 -76 -58 -76 4 0 94 68 198 150 135 108 198 165 222 201 18 27 39
52 47 56 9 3 25 27 36 54 12 27 39 65 62 85 36 33 44 36 83 31 39 -4 47 -1 82
32 l39 37 -33 22 c-38 25 -34 24 -55 12z m21 -49 c0 -14 -28 -33 -40 -26 -19
12 -10 31 15 33 14 1 25 -2 25 -7z"/>
<path d="M1390 685 c0 -13 84 -45 117 -45 40 0 136 39 116 47 -6 2 -24 -2 -40
-10 -52 -26 -80 -28 -133 -7 -54 21 -60 23 -60 15z"/>
<path d="M1210 627 c-32 -16 -65 -78 -47 -89 7 -4 19 4 30 23 24 37 56 45 96
25 50 -26 43 -59 -29 -128 -60 -56 -71 -83 -47 -107 10 -10 8 -16 -9 -30 -23
-18 -37 -75 -36 -143 1 -27 -4 -38 -14 -38 -8 0 -14 -7 -14 -16 0 -8 4 -13 9
-10 4 3 16 -3 25 -13 14 -15 14 -20 4 -25 -7 -3 1 -5 17 -4 65 2 110 -29 90
-62 -3 -5 1 -10 10 -10 17 0 29 26 51 113 15 56 14 60 -7 105 -13 26 -45 74
-71 106 -26 33 -48 63 -48 67 0 4 11 10 25 13 40 10 93 71 109 127 16 51 13
75 -5 63 -6 -3 -18 1 -27 9 -13 10 -77 38 -86 37 -1 0 -12 -6 -26 -13z m16
-324 c-14 -48 -26 -113 -26 -153 -1 -41 -2 -43 -13 -22 -8 17 -7 43 2 100 7
42 15 80 18 85 9 14 24 7 19 -10z m50 -31 c4 -9 8 -24 8 -32 2 -19 -33 -60
-51 -60 -8 0 -12 8 -9 23 16 89 19 95 31 91 7 -3 17 -13 21 -22z m50 -124 c-3
-34 -10 -66 -15 -71 -8 -8 -91 11 -91 20 0 11 63 94 78 102 31 19 35 12 28
-51z"/>
<path d="M1694 611 l-42 -19 9 -47 c10 -55 41 -109 75 -132 13 -8 24 -20 24
-25 0 -5 -28 -50 -62 -99 -55 -80 -62 -96 -66 -147 -4 -68 8 -134 27 -140 14
-5 14 1 -6 131 l-6 37 63 0 63 0 -6 70 c-3 39 -2 70 3 70 13 0 20 -29 20 -90
0 -52 2 -58 23 -64 37 -9 93 -63 116 -112 26 -54 37 -53 22 3 -10 38 -48 93
-64 93 -9 0 -28 15 -57 44 -18 17 -26 61 -21 104 1 6 -2 12 -6 12 -4 0 -16 7
-26 14 -16 12 -16 16 -2 50 15 35 15 36 -16 68 -44 46 -92 153 -59 133 6 -3
10 1 10 9 0 32 54 18 96 -24 34 -34 48 -41 93 -45 34 -4 50 -2 46 5 -3 5 -16
10 -28 11 l-22 0 23 9 c32 13 27 21 -8 13 -25 -5 -35 0 -63 29 -59 63 -86 69
-153 39z m56 -331 c0 -11 -40 -50 -52 -50 -11 0 -1 18 21 42 18 19 31 23 31 8z
m0 -53 c0 -17 -20 -37 -37 -37 -16 0 -17 22 -1 38 16 16 38 15 38 -1z"/>
<path d="M1037 489 c-9 -5 -21 -8 -26 -5 -4 3 -17 -4 -27 -17 -10 -12 -15 -19
-10 -15 5 4 14 4 20 0 6 -4 23 4 40 20 31 30 31 33 3 17z"/>
<path d="M2010 459 c0 -4 -3 -14 -6 -23 -4 -11 -1 -16 10 -16 19 0 22 -17 4
-23 -7 -2 -3 -2 9 -1 12 2 25 0 28 -6 3 -5 0 -10 -8 -10 -8 0 -18 -7 -21 -15
-4 -11 0 -15 11 -13 11 2 26 -16 47 -59 17 -35 34 -63 38 -63 3 0 -2 18 -13
40 -38 79 -14 99 26 20 14 -27 25 -58 25 -68 0 -10 14 -31 30 -45 37 -34 38
-42 0 -55 -31 -11 -120 -94 -120 -113 0 -6 26 13 57 42 l58 52 11 -39 11 -38
26 45 c35 60 34 78 -7 111 -20 16 -49 58 -71 103 -21 41 -49 85 -64 98 -15 12
-32 36 -39 53 -11 27 -42 44 -42 23z"/>
<path d="M936 393 c-3 -10 -11 -26 -18 -35 -11 -15 -8 -22 21 -50 l34 -33 -23
31 c-18 26 -20 35 -11 53 8 13 21 21 38 21 26 0 26 1 7 15 -26 19 -40 19 -48
-2z"/>
<path d="M857 248 c-19 -35 -38 -73 -41 -85 -10 -30 11 -30 25 0 5 12 16 33
24 47 8 14 15 33 15 43 0 9 3 17 8 17 4 0 13 9 20 20 10 16 10 20 -2 20 -8 0
-30 -28 -49 -62z"/>
<path d="M808 235 c-9 -35 -23 -56 -50 -78 -46 -37 -50 -48 -37 -103 12 -48
24 -50 34 -4 4 17 10 30 15 30 5 0 24 -19 43 -41 43 -53 68 -49 30 4 -15 22
-45 48 -67 59 -38 19 -39 21 -20 35 10 8 25 18 32 22 12 7 44 112 37 120 -3 2
-10 -18 -17 -44z"/>
<path d="M1518 118 c-15 -16 -23 -28 -19 -28 5 0 14 7 21 15 7 8 24 15 39 16
16 0 20 3 11 6 -8 3 -17 9 -20 12 -3 3 -17 -6 -32 -21z"/>
<path d="M1772 94 c-28 -20 -29 -54 -1 -54 11 0 18 4 15 9 -6 8 18 23 39 25 5
1 11 9 13 19 4 22 -35 23 -66 1z"/>
</g>
</svg>
